{"title":"Jennifer Hudson - I Will Always Love You - The 54th Annual Gramm","uid":7032603,"size":424408308,"categoryP":"video","categoryS":"other","magnet":"?xt=urn:btih:a8f7a4119bf75dbc8690a4162d45f3c50c7ffc6f&amp;dn=Jennifer+Hudson+-+I+Will+Always+Love+You+-+The+54th+Annual+Gramm&amp;tr=udp%3A%2F%2Ftracker.openbittorrent.com%3A80&amp;tr=udp%3A%2F%2Fopen.demonii.com%3A1337&amp;tr=udp%3A%2F%2Ftracker.coppersurfer.tk%3A6969&amp;tr=udp%3A%2F%2Fexodus.desync.com%3A6969","seeders":1,"leechers":0,"uploader":null,"files":1,"time":1329266975,"description":"Format                           : MPEG-TS\nFile size                        : 405 MiB\nDuration                         : 3mn 30s\nOverall bit rate mode            : Variable\nOverall bit rate                 : 16.1 Mbps\n\nVideo\nID                               : 2048 (0x800)\nMenu ID                          : 1 (0x1)\nFormat                           : MPEG Video\nFormat version                   : Version 2\nFormat profile                   : Main@High\nFormat settings, BVOP            : Yes\nFormat settings, Matrix          : Custom\nCodec ID                         : 2\nDuration                         : 3mn 30s\nBit rate mode                    : Variable\nBit rate                         : 14.9 Mbps\nMaximum bit rate                 : 13.9 Mbps\nWidth                            : 1 920 pixels\nHeight                           : 1 080 pixels\nDisplay aspect ratio             : 16:9\nFrame rate                       : 29.970 fps\nColor space                      : YUV\nChroma subsampling               : 4:2:0\nBit depth                        : 8 bits\nScan type                        : Interlaced\nScan order                       : Top Field First\nCompression mode                 : Lossy\nBits/(Pixel*Frame)               : 0.240\nStream size                      : 375 MiB (93%)\nColor primaries                  : BT.709\nTransfer characteristics         : BT.709\nMatrix coefficients              : BT.709\n\nAudio\nID                               : 2049 (0x801)\nMenu ID                          : 1 (0x1)\nFormat                           : AC-3\nFormat/Info                      : Audio Coding 3\nMode extension                   : CM (complete main)\nCodec ID                         : 129\nDuration                         : 3mn 30s\nBit rate mode                    : Constant\nBit rate                         : 384 Kbps\nChannel(s)                       : 6 channels\nChannel positions                : Front: L C R, Side: L R, LFE\nSampling rate                    : 48.0 KHz\nBit depth                        : 16 bits\nCompression mode                 : Lossy\nStream size                      : 9.65 MiB (2%)\nLanguage                         : English\n\nText #1\nID                               : 2048 (0x800)-608-1\nMenu ID                          : 1 (0x1)\nFormat                           : EIA-608\nMuxing mode                      : A/53 / DTVCC Transport\nMuxing mode, more info           : Muxed in Video #1\nDuration                         : 3mn 30s\nBit rate mode                    : Constant\nStream size                      : 0.00 Byte (0%)\n\nText #2\nID                               : 2048 (0x800)-1\nMenu ID                          : 1 (0x1)\nFormat                           : EIA-708\nMuxing mode                      : A/53 / DTVCC Transport\nMuxing mode, more info           : Muxed in Video #1\nDuration                         : 3mn 30s\nBit rate mode                    : Constant\nStream size                      : 0.00 Byte (0%)\n","torrent":{"xt":"urn:btih:a8f7a4119bf75dbc8690a4162d45f3c50c7ffc6f","amp;dn":"Jennifer+Hudson+-+I+Will+Always+Love+You+-+The+54th+Annual+Gramm","amp;tr":["udp%3A%2F%2Ftracker.openbittorrent.com%3A80","udp%3A%2F%2Fopen.demonii.com%3A1337","udp%3A%2F%2Ftracker.coppersurfer.tk%3A6969","udp%3A%2F%2Fexodus.desync.com%3A6969"],"infoHash":"a8f7a4119bf75dbc8690a4162d45f3c50c7ffc6f","infoHashBuffer":{"type":"Buffer","data":[168,247,164,17,155,247,93,188,134,144,164,22,45,69,243,197,12,127,252,111]},"announce":[],"urlList":[]}}